<svg width="220" height="28" viewBox="0 0 220 28" fill="none" xmlns="http://www.w3.org/2000/svg">
<path d="M1.52 1.988V0.987998H0.52V1.988H1.52ZM17.108 4.112L16.3888 4.80684L16.3948 4.81293L17.108 4.112ZM17.252 14.516L17.9392 15.2425L17.9454 15.2366L17.252 14.516ZM13.94 16.172L13.7439 15.1914L12.1708 15.506L13.146 16.7799L13.94 16.172ZM21.464 26V27H23.489L22.258 25.3921L21.464 26ZM13.724 26L12.885 26.5441L13.1806 27H13.724V26ZM7.748 16.784L8.58704 16.2399L6.748 13.4038V16.784H7.748ZM7.748 26V27H8.748V26H7.748ZM1.52 26H0.52V27H1.52V26ZM7.748 6.812V5.812H6.748V6.812H7.748ZM7.748 12.752H6.748V13.752H7.748V12.752ZM11.96 11.78L12.6541 12.4998L12.6607 12.4935L12.6671 12.4871L11.96 11.78ZM11.924 7.748L11.2169 8.4551L11.233 8.47117L11.2497 8.48648L11.924 7.748ZM1.52 2.988H11.24V0.987998H1.52V2.988ZM11.24 2.988C13.596 2.988 15.2601 3.63852 16.3888 4.80681L17.8272 3.41719C16.2199 1.75348 13.972 0.987998 11.24 0.987998V2.988ZM16.3948 4.81293C17.5543 5.99282 18.16 7.52878 18.16 9.512H20.16C20.16 7.07922 19.3977 5.01518 17.8212 3.41107L16.3948 4.81293ZM18.16 9.512C18.16 11.4097 17.5968 12.7964 16.5586 13.7954L17.9454 15.2366C19.4512 13.7876 20.16 11.8383 20.16 9.512H18.16ZM16.5648 13.7895C15.827 14.4875 14.8989 14.9604 13.7439 15.1914L14.1361 17.1526C15.6211 16.8556 16.901 16.2245 17.9392 15.2425L16.5648 13.7895ZM13.146 16.7799L20.67 26.6079L22.258 25.3921L14.734 15.5641L13.146 16.7799ZM21.464 25H13.724V27H21.464V25ZM14.563 25.4559L8.58704 16.2399L6.90896 17.3281L12.885 26.5441L14.563 25.4559ZM6.748 16.784V26H8.748V16.784H6.748ZM7.748 25H1.52V27H7.748V25ZM2.52 26V1.988H0.52V26H2.52ZM6.748 6.812V12.752H8.748V6.812H6.748ZM7.748 13.752H8.936V11.752H7.748V13.752ZM8.936 13.752C10.4252 13.752 11.7274 13.3935 12.6541 12.4998L11.2659 11.0602C10.8486 11.4625 10.1348 11.752 8.936 11.752V13.752ZM12.6671 12.4871C13.401 11.7532 13.752 10.8181 13.752 9.764H11.752C11.752 10.3419 11.575 10.7508 11.2529 11.0729L12.6671 12.4871ZM13.752 9.764C13.752 8.68155 13.3846 7.7275 12.5983 7.00951L11.2497 8.48648C11.5674 8.7765 11.752 9.16645 11.752 9.764H13.752ZM12.6311 7.04089C11.7385 6.1483 10.4269 5.812 8.936 5.812V7.812C10.1811 7.812 10.8615 8.0997 11.2169 8.4551L12.6311 7.04089ZM8.936 5.812H7.748V7.812H8.936V5.812ZM45.7263 22.976L46.4158 23.7003L46.4196 23.6967L45.7263 22.976ZM26.7903 22.976L26.0971 23.6967L26.1008 23.7003L26.7903 22.976ZM23.9463 9.152L23.0207 8.77333L23.0159 8.78547L23.9463 9.152ZM26.7903 5.012L27.4761 5.7398L27.4798 5.7363L26.7903 5.012ZM45.7263 5.012L45.0368 5.73631L45.0405 5.73979L45.7263 5.012ZM48.5343 9.152L47.6038 9.51855L47.6088 9.53063L48.5343 9.152ZM31.3983 9.404L32.0987 10.1178L32.1054 10.1111L31.3983 9.404ZM31.3983 18.584L32.0922 17.8639L32.0917 17.8634L31.3983 18.584ZM41.0823 18.62L41.7894 19.3271L41.0823 18.62ZM41.0823 9.404L41.776 8.68365L41.7697 8.67771L41.0823 9.404ZM48.5063 14.012C48.5063 17.2969 47.3536 20.0232 45.0331 22.2553L46.4196 23.6967C49.139 21.0808 50.5063 17.8311 50.5063 14.012H48.5063ZM45.0368 22.2517C42.7474 24.4311 39.8476 25.54 36.2583 25.54V27.54C40.301 27.54 43.7132 26.2729 46.4158 23.7003L45.0368 22.2517ZM36.2583 25.54C32.669 25.54 29.7692 24.4311 27.4798 22.2517L26.1008 23.7003C28.8034 26.2729 32.2156 27.54 36.2583 27.54V25.54ZM27.4836 22.2553C25.163 20.0232 24.0103 17.2969 24.0103 14.012H22.0103C22.0103 17.8311 23.3776 21.0808 26.0971 23.6967L27.4836 22.2553ZM24.0103 14.012C24.0103 12.485 24.2974 10.9891 24.8767 9.51852L23.0159 8.78547C22.3472 10.4829 22.0103 12.227 22.0103 14.012H24.0103ZM24.8719 9.53063C25.4657 8.07907 26.3318 6.81806 27.4761 5.73979L26.1045 4.28421C24.7528 5.55794 23.7229 7.05693 23.0208 8.77337L24.8719 9.53063ZM27.4798 5.7363C29.7692 3.55694 32.669 2.448 36.2583 2.448V0.447998C32.2156 0.447998 28.8034 1.71506 26.1008 4.2877L27.4798 5.7363ZM36.2583 2.448C39.8476 2.448 42.7474 3.55694 45.0368 5.7363L46.4158 4.2877C43.7132 1.71506 40.301 0.447998 36.2583 0.447998V2.448ZM45.0405 5.73979C46.1822 6.81559 47.0343 8.0725 47.6039 9.51852L49.4647 8.78547C48.7864 7.0635 47.7664 5.5604 46.4121 4.28421L45.0405 5.73979ZM47.6088 9.53063C48.2093 10.9986 48.5063 12.4902 48.5063 14.012H50.5063C50.5063 12.2218 50.1553 10.4734 49.4599 8.77337L47.6088 9.53063ZM36.2583 6.496C34.0525 6.496 32.1693 7.21881 30.6912 8.69689L32.1054 10.1111C33.1713 9.04519 34.5281 8.496 36.2583 8.496V6.496ZM30.698 8.69019C29.2211 10.1392 28.4903 11.9746 28.4903 14.12H30.4903C30.4903 12.4734 31.0315 11.1648 32.0987 10.1178L30.698 8.69019ZM28.4903 14.12C28.4903 16.1462 29.2387 17.8937 30.7049 19.3046L32.0917 17.8634C31.0139 16.8263 30.4903 15.5978 30.4903 14.12H28.4903ZM30.7044 19.3041C32.2203 20.7649 34.0931 21.492 36.2583 21.492V19.492C34.5835 19.492 33.2163 18.9471 32.0922 17.8639L30.7044 19.3041ZM36.2583 21.492C38.4581 21.492 40.3315 20.785 41.7894 19.3271L40.3752 17.9129C39.3371 18.951 37.9945 19.492 36.2583 19.492V21.492ZM41.7894 19.3271C43.2663 17.8503 44.0263 16.0626 44.0263 14.012H42.0263C42.0263 15.5134 41.4904 16.7977 40.3752 17.9129L41.7894 19.3271ZM44.0263 14.012C44.0263 11.9205 43.2707 10.1231 41.776 8.68368L40.3887 10.1243C41.4859 11.1809 42.0263 12.4555 42.0263 14.012H44.0263ZM41.7697 8.67771C40.2376 7.22768 38.3827 6.496 36.2583 6.496V8.496C37.8779 8.496 39.239 9.03632 40.3949 10.1303L41.7697 8.67771ZM68.9058 26L67.9668 26.3438L68.207 27H68.9058V26ZM67.4298 21.968L68.3689 21.6242L68.1286 20.968H67.4298V21.968ZM58.7178 21.968V20.968H58.0419L57.7899 21.5952L58.7178 21.968ZM57.0978 26V27H57.7737L58.0257 26.3728L57.0978 26ZM50.5098 26L49.5762 25.6417L49.0549 27H50.5098V26ZM59.7258 1.988V0.987998H59.0385L58.7922 1.62968L59.7258 1.988ZM66.5298 1.988L67.4657 1.6358L67.222 0.987998H66.5298V1.988ZM75.5658 26V27H77.0106L76.5017 25.6478L75.5658 26ZM60.4458 17.216L59.4985 16.8958L59.0523 18.216H60.4458V17.216ZM65.7738 17.216V18.216H67.1796L66.7185 16.888L65.7738 17.216ZM63.0738 9.44L64.0185 9.11199L63.061 6.35451L62.1265 9.11983L63.0738 9.44ZM69.8449 25.6562L68.3689 21.6242L66.4908 22.3118L67.9668 26.3438L69.8449 25.6562ZM67.4298 20.968H58.7178V22.968H67.4298V20.968ZM57.7899 21.5952L56.1699 25.6272L58.0257 26.3728L59.6457 22.3408L57.7899 21.5952ZM57.0978 25H50.5098V27H57.0978V25ZM51.4434 26.3583L60.6594 2.34632L58.7922 1.62968L49.5762 25.6417L51.4434 26.3583ZM59.7258 2.988H66.5298V0.987998H59.7258V2.988ZM65.5939 2.3402L74.6299 26.3522L76.5017 25.6478L67.4657 1.6358L65.5939 2.3402ZM75.5658 25H68.9058V27H75.5658V25ZM60.4458 18.216H65.7738V16.216H60.4458V18.216ZM66.7185 16.888L64.0185 9.11199L62.1291 9.76801L64.8291 17.544L66.7185 16.888ZM62.1265 9.11983L59.4985 16.8958L61.3932 17.5362L64.0212 9.76017L62.1265 9.11983ZM78.3364 26H77.3364V27H78.3364V26ZM78.3364 1.988V0.987998H77.3364V1.988H78.3364ZM96.0484 5.3L95.3527 6.01837L95.357 6.02247L96.0484 5.3ZM96.2644 22.364L95.5573 21.6569L96.2644 22.364ZM92.3044 24.992L92.695 25.9127L92.7067 25.9075L92.3044 24.992ZM84.5644 7.28V6.28H83.5644V7.28H84.5644ZM84.5644 20.708H83.5644V21.708H84.5644V20.708ZM91.0804 18.98L90.3876 18.2589L90.3806 18.2656L91.0804 18.98ZM91.0444 8.792L91.7302 8.0642L91.7267 8.06094L91.0444 8.792ZM87.0484 25H78.3364V27H87.0484V25ZM79.3364 26V1.988H77.3364V26H79.3364ZM78.3364 2.988H86.5084V0.987998H78.3364V2.988ZM86.5084 2.988C90.4059 2.988 93.3082 4.03838 95.3527 6.01836L96.7441 4.58164C94.2286 2.14561 90.7709 0.987998 86.5084 0.987998V2.988ZM95.357 6.02247C97.3537 7.93329 98.3964 10.567 98.3964 14.048H100.396C100.396 10.137 99.2071 6.93871 96.7398 4.57753L95.357 6.02247ZM98.3964 14.048C98.3964 17.2875 97.4259 19.7883 95.5573 21.6569L96.9715 23.0711C99.2789 20.7637 100.396 17.7205 100.396 14.048H98.3964ZM95.5573 21.6569C94.6018 22.6124 93.3902 23.4226 91.9021 24.0765L92.7067 25.9075C94.3866 25.1694 95.815 24.2276 96.9715 23.0711L95.5573 21.6569ZM91.9139 24.0714C90.467 24.6853 88.8498 25 87.0484 25V27C89.087 27 90.9739 26.6427 92.695 25.9126L91.9139 24.0714ZM83.5644 7.28V20.708H85.5644V7.28H83.5644ZM84.5644 21.708H85.8244V19.708H84.5644V21.708ZM85.8244 21.708C88.3048 21.708 90.3516 21.0938 91.7802 19.6944L90.3806 18.2656C89.4572 19.1702 88 19.708 85.8244 19.708V21.708ZM91.7732 19.7011C93.2393 18.2926 93.9164 16.3614 93.9164 14.048H91.9164C91.9164 15.9586 91.3696 17.3154 90.3876 18.2589L91.7732 19.7011ZM93.9164 14.048C93.9164 11.5466 93.2426 9.48931 91.7302 8.06421L90.3586 9.51979C91.3423 10.4467 91.9164 11.8934 91.9164 14.048H93.9164ZM91.7267 8.06094C90.3863 6.80989 88.4355 6.28 86.0764 6.28V8.28C88.1813 8.28 89.5425 8.75811 90.3621 9.52305L91.7267 8.06094ZM86.0764 6.28H84.5644V8.28H86.0764V6.28ZM110.69 23.84L109.806 23.3727L109.393 24.1531L110.117 24.6592L110.69 23.84ZM113.354 18.8L114.041 18.073L113.084 17.17L112.47 18.3327L113.354 18.8ZM121.274 20.42L120.567 19.7129L120.551 19.729L120.536 19.7457L121.274 20.42ZM121.202 17.468L120.543 18.2206L120.551 18.2268L120.558 18.2329L121.202 17.468ZM118.106 16.208L117.809 17.1629L117.819 17.1658L118.106 16.208ZM116.486 15.704L116.187 16.6582L116.189 16.6589L116.486 15.704ZM113.03 13.76L113.781 13.0999L113.772 13.0899L113.763 13.0802L113.03 13.76ZM113.858 3.716L114.565 4.42311L113.858 3.716ZM127.43 3.392L128.32 3.84711L128.771 2.96587L127.894 2.50634L127.43 3.392ZM124.946 8.252L124.326 9.03688L125.282 9.79149L125.836 8.70711L124.946 8.252ZM118.79 7.352L118.1 6.62786L118.092 6.63627L118.083 6.64489L118.79 7.352ZM118.502 9.728L117.702 10.328L117.716 10.3462L117.73 10.3637L118.502 9.728ZM120.59 10.808L120.879 9.85065L120.873 9.84898L120.59 10.808ZM122.498 11.384L122.794 10.4287L122.787 10.4267L122.498 11.384ZM126.854 13.76L126.12 14.4391L126.123 14.4429L126.854 13.76ZM126.134 24.092L125.427 23.3849L126.134 24.092ZM114.326 25.748L114.67 24.8091L114.659 24.805L114.326 25.748ZM111.574 24.3073L114.238 19.2673L112.47 18.3327L109.806 23.3727L111.574 24.3073ZM112.667 19.527C114.537 21.2932 116.608 22.248 118.862 22.248V20.248C117.228 20.248 115.627 19.5708 114.041 18.073L112.667 19.527ZM118.862 22.248C120.112 22.248 121.244 21.9361 122.012 21.0943L120.536 19.7457C120.296 20.0079 119.82 20.248 118.862 20.248V22.248ZM121.981 21.1271C122.585 20.5234 122.886 19.7614 122.886 18.908H120.886C120.886 19.2546 120.779 19.5006 120.567 19.7129L121.981 21.1271ZM122.886 18.908C122.886 18.0254 122.519 17.2695 121.846 16.7031L120.558 18.2329C120.797 18.4345 120.886 18.6386 120.886 18.908H122.886ZM121.861 16.7154C121.533 16.4292 121.043 16.189 120.517 15.9748C119.96 15.7481 119.249 15.5068 118.393 15.2502L117.819 17.1658C118.643 17.4132 119.288 17.6339 119.763 17.8272C120.269 18.033 120.487 18.1708 120.543 18.2206L121.861 16.7154ZM118.403 15.2531L116.783 14.7491L116.189 16.6589L117.809 17.1629L118.403 15.2531ZM116.785 14.7498C115.257 14.2708 114.304 13.6951 113.781 13.0999L112.279 14.4201C113.148 15.4089 114.499 16.1292 116.187 16.6582L116.785 14.7498ZM113.763 13.0802C113.078 12.3412 112.662 11.204 112.662 9.512H110.662C110.662 11.516 111.158 13.2108 112.297 14.4398L113.763 13.0802ZM112.662 9.512C112.662 7.33154 113.319 5.66957 114.565 4.42311L113.151 3.00889C111.469 4.69043 110.662 6.89246 110.662 9.512H112.662ZM114.565 4.42311C115.851 3.13721 117.627 2.448 120.014 2.448V0.447998C117.217 0.447998 114.889 1.27079 113.151 3.00889L114.565 4.42311ZM120.014 2.448C122.304 2.448 124.618 3.04696 126.966 4.27766L127.894 2.50634C125.298 1.14504 122.668 0.447998 120.014 0.447998V2.448ZM126.54 2.93689L124.056 7.79689L125.836 8.70711L128.32 3.84711L126.54 2.93689ZM125.566 7.46712C124.07 6.28655 122.49 5.632 120.842 5.632V7.632C121.93 7.632 123.086 8.05745 124.326 9.03688L125.566 7.46712ZM120.842 5.632C119.786 5.632 118.833 5.93044 118.1 6.62786L119.48 8.07614C119.755 7.81355 120.17 7.632 120.842 7.632V5.632ZM118.083 6.64489C117.54 7.18808 117.178 7.86094 117.178 8.648H119.178C119.178 8.52306 119.224 8.33192 119.497 8.05911L118.083 6.64489ZM117.178 8.648C117.178 9.25187 117.332 9.83439 117.702 10.328L119.302 9.128C119.24 9.0456 119.178 8.90813 119.178 8.648H117.178ZM117.73 10.3637C118.271 11.0209 119.227 11.4481 120.307 11.767L120.873 9.84898C119.841 9.54386 119.405 9.25113 119.274 9.09229L117.73 10.3637ZM120.301 11.7653L122.209 12.3413L122.787 10.4267L120.879 9.85067L120.301 11.7653ZM122.202 12.3393C124.143 12.94 125.403 13.6643 126.12 14.439L127.588 13.081C126.529 11.9357 124.885 11.076 122.794 10.4287L122.202 12.3393ZM126.123 14.4429C126.955 15.3323 127.402 16.5023 127.402 18.044H129.402C129.402 16.0817 128.817 14.3957 127.585 13.0771L126.123 14.4429ZM127.402 18.044C127.402 20.3497 126.718 22.0936 125.427 23.3849L126.841 24.7991C128.574 23.0664 129.402 20.7783 129.402 18.044H127.402ZM125.427 23.3849C124.039 24.7723 121.966 25.54 119.042 25.54V27.54C122.31 27.54 124.965 26.6757 126.841 24.7991L125.427 23.3849ZM119.042 25.54C117.442 25.54 115.988 25.2925 114.67 24.8091L113.982 26.6869C115.544 27.2595 117.234 27.54 119.042 27.54V25.54ZM114.659 24.805C113.53 24.4067 112.399 23.8154 111.263 23.0208L110.117 24.6592C111.381 25.5446 112.674 26.2253 113.993 26.691L114.659 24.805ZM145.98 1.988H146.98V0.987998H145.98V1.988ZM145.98 7.28V8.28H146.98V7.28H145.98ZM138.564 7.28V6.28H137.564V7.28H138.564ZM138.564 11.276H137.564V12.276H138.564V11.276ZM145.584 11.276H146.584V10.276H145.584V11.276ZM145.584 16.568V17.568H146.584V16.568H145.584ZM138.564 16.568V15.568H137.564V16.568H138.564ZM138.564 20.708H137.564V21.708H138.564V20.708ZM145.98 20.708H146.98V19.708H145.98V20.708ZM145.98 26V27H146.98V26H145.98ZM132.336 26H131.336V27H132.336V26ZM132.336 1.988V0.987998H131.336V1.988H132.336ZM144.98 1.988V7.28H146.98V1.988H144.98ZM145.98 6.28H138.564V8.28H145.98V6.28ZM137.564 7.28V11.276H139.564V7.28H137.564ZM138.564 12.276H145.584V10.276H138.564V12.276ZM144.584 11.276V16.568H146.584V11.276H144.584ZM145.584 15.568H138.564V17.568H145.584V15.568ZM137.564 16.568V20.708H139.564V16.568H137.564ZM138.564 21.708H145.98V19.708H138.564V21.708ZM144.98 20.708V26H146.98V20.708H144.98ZM145.98 25H132.336V27H145.98V25ZM133.336 26V1.988H131.336V26H133.336ZM132.336 2.988H145.98V0.987998H132.336V2.988ZM149.95 1.988V0.987998H148.95V1.988H149.95ZM165.538 4.112L164.818 4.80684L164.824 4.81293L165.538 4.112ZM165.682 14.516L166.369 15.2425L166.375 15.2366L165.682 14.516ZM162.37 16.172L162.174 15.1914L160.6 15.506L161.576 16.7799L162.37 16.172ZM169.894 26V27H171.919L170.688 25.3921L169.894 26ZM162.154 26L161.315 26.5441L161.61 27H162.154V26ZM156.178 16.784L157.017 16.2399L155.178 13.4038V16.784H156.178ZM156.178 26V27H157.178V26H156.178ZM149.95 26H148.95V27H149.95V26ZM156.178 6.812V5.812H155.178V6.812H156.178ZM156.178 12.752H155.178V13.752H156.178V12.752ZM160.39 11.78L161.084 12.4998L161.09 12.4935L161.097 12.4871L160.39 11.78ZM160.354 7.748L159.647 8.4551L159.663 8.47117L159.679 8.48648L160.354 7.748ZM149.95 2.988H159.67V0.987998H149.95V2.988ZM159.67 2.988C162.026 2.988 163.69 3.63852 164.818 4.80681L166.257 3.41719C164.65 1.75348 162.402 0.987998 159.67 0.987998V2.988ZM164.824 4.81293C165.984 5.99282 166.59 7.52878 166.59 9.512H168.59C168.59 7.07922 167.827 5.01518 166.251 3.41107L164.824 4.81293ZM166.59 9.512C166.59 11.4097 166.026 12.7964 164.988 13.7954L166.375 15.2366C167.881 13.7876 168.59 11.8383 168.59 9.512H166.59ZM164.994 13.7895C164.257 14.4875 163.329 14.9604 162.174 15.1914L162.566 17.1526C164.051 16.8556 165.331 16.2245 166.369 15.2425L164.994 13.7895ZM161.576 16.7799L169.1 26.6079L170.688 25.3921L163.164 15.5641L161.576 16.7799ZM169.894 25H162.154V27H169.894V25ZM162.993 25.4559L157.017 16.2399L155.339 17.3281L161.315 26.5441L162.993 25.4559ZM155.178 16.784V26H157.178V16.784H155.178ZM156.178 25H149.95V27H156.178V25ZM150.95 26V1.988H148.95V26H150.95ZM155.178 6.812V12.752H157.178V6.812H155.178ZM156.178 13.752H157.366V11.752H156.178V13.752ZM157.366 13.752C158.855 13.752 160.157 13.3935 161.084 12.4998L159.696 11.0602C159.278 11.4625 158.564 11.752 157.366 11.752V13.752ZM161.097 12.4871C161.831 11.7532 162.182 10.8181 162.182 9.764H160.182C160.182 10.3419 160.005 10.7508 159.683 11.0729L161.097 12.4871ZM162.182 9.764C162.182 8.68155 161.814 7.7275 161.028 7.00951L159.679 8.48648C159.997 8.7765 160.182 9.16645 160.182 9.764H162.182ZM161.061 7.04089C160.168 6.1483 158.857 5.812 157.366 5.812V7.812C158.611 7.812 159.291 8.0997 159.647 8.4551L161.061 7.04089ZM157.366 5.812H156.178V7.812H157.366V5.812ZM172.52 1.988V0.987998H171.52V1.988H172.52ZM178.748 1.988H179.748V0.987998H178.748V1.988ZM178.748 26V27H179.748V26H178.748ZM172.52 26H171.52V27H172.52V26ZM172.52 2.988H178.748V0.987998H172.52V2.988ZM177.748 1.988V26H179.748V1.988H177.748ZM178.748 25H172.52V27H178.748V25ZM173.52 26V1.988H171.52V26H173.52ZM197.449 1.988H198.449V0.987998H197.449V1.988ZM197.449 7.28V8.28H198.449V7.28H197.449ZM190.033 7.28V6.28H189.033V7.28H190.033ZM190.033 11.276H189.033V12.276H190.033V11.276ZM197.053 11.276H198.053V10.276H197.053V11.276ZM197.053 16.568V17.568H198.053V16.568H197.053ZM190.033 16.568V15.568H189.033V16.568H190.033ZM190.033 20.708H189.033V21.708H190.033V20.708ZM197.449 20.708H198.449V19.708H197.449V20.708ZM197.449 26V27H198.449V26H197.449ZM183.805 26H182.805V27H183.805V26ZM183.805 1.988V0.987998H182.805V1.988H183.805ZM196.449 1.988V7.28H198.449V1.988H196.449ZM197.449 6.28H190.033V8.28H197.449V6.28ZM189.033 7.28V11.276H191.033V7.28H189.033ZM190.033 12.276H197.053V10.276H190.033V12.276ZM196.053 11.276V16.568H198.053V11.276H196.053ZM197.053 15.568H190.033V17.568H197.053V15.568ZM189.033 16.568V20.708H191.033V16.568H189.033ZM190.033 21.708H197.449V19.708H190.033V21.708ZM196.449 20.708V26H198.449V20.708H196.449ZM197.449 25H183.805V27H197.449V25ZM184.805 26V1.988H182.805V26H184.805ZM183.805 2.988H197.449V0.987998H183.805V2.988ZM200.338 23.84L199.454 23.3727L199.042 24.1531L199.765 24.6592L200.338 23.84ZM203.002 18.8L203.689 18.073L202.733 17.17L202.118 18.3327L203.002 18.8ZM210.922 20.42L210.215 19.7129L210.199 19.729L210.184 19.7457L210.922 20.42ZM210.85 17.468L210.192 18.2206L210.199 18.2268L210.206 18.2329L210.85 17.468ZM207.754 16.208L207.457 17.1629L207.467 17.1658L207.754 16.208ZM206.134 15.704L205.835 16.6582L205.837 16.6589L206.134 15.704ZM202.678 13.76L203.43 13.0999L203.421 13.0899L203.412 13.0802L202.678 13.76ZM203.506 3.716L204.214 4.42311L203.506 3.716ZM217.078 3.392L217.969 3.84711L218.419 2.96587L217.543 2.50634L217.078 3.392ZM214.594 8.252L213.975 9.03688L214.931 9.79149L215.485 8.70711L214.594 8.252ZM208.438 7.352L207.749 6.62786L207.74 6.63627L207.731 6.64489L208.438 7.352ZM208.15 9.728L207.35 10.328L207.364 10.3462L207.379 10.3637L208.15 9.728ZM210.238 10.808L210.527 9.85065L210.522 9.84898L210.238 10.808ZM212.146 11.384L212.442 10.4287L212.435 10.4267L212.146 11.384ZM216.502 13.76L215.768 14.4391L215.772 14.4429L216.502 13.76ZM215.782 24.092L215.075 23.3849L215.782 24.092ZM203.974 25.748L204.319 24.8091L204.307 24.805L203.974 25.748ZM201.223 24.3073L203.887 19.2673L202.118 18.3327L199.454 23.3727L201.223 24.3073ZM202.316 19.527C204.186 21.2932 206.257 22.248 208.51 22.248V20.248C206.876 20.248 205.275 19.5708 203.689 18.073L202.316 19.527ZM208.51 22.248C209.76 22.248 210.892 21.9361 211.661 21.0943L210.184 19.7457C209.945 20.0079 209.469 20.248 208.51 20.248V22.248ZM211.63 21.1271C212.233 20.5234 212.534 19.7614 212.534 18.908H210.534C210.534 19.2546 210.428 19.5006 210.215 19.7129L211.63 21.1271ZM212.534 18.908C212.534 18.0254 212.167 17.2695 211.495 16.7031L210.206 18.2329C210.446 18.4345 210.534 18.6386 210.534 18.908H212.534ZM211.509 16.7154C211.182 16.4292 210.692 16.189 210.165 15.9748C209.608 15.7481 208.897 15.5068 208.042 15.2502L207.467 17.1658C208.292 17.4132 208.936 17.6339 209.411 17.8272C209.917 18.033 210.135 18.1708 210.192 18.2206L211.509 16.7154ZM208.051 15.2531L206.432 14.7491L205.837 16.6589L207.457 17.1629L208.051 15.2531ZM206.434 14.7498C204.906 14.2708 203.953 13.6951 203.43 13.0999L201.927 14.4201C202.796 15.4089 204.147 16.1292 205.835 16.6582L206.434 14.7498ZM203.412 13.0802C202.727 12.3412 202.31 11.204 202.31 9.512H200.31C200.31 11.516 200.806 13.2108 201.945 14.4398L203.412 13.0802ZM202.31 9.512C202.31 7.33154 202.967 5.66957 204.214 4.42311L202.799 3.00889C201.118 4.69043 200.31 6.89246 200.31 9.512H202.31ZM204.214 4.42311C205.499 3.13721 207.276 2.448 209.662 2.448V0.447998C206.865 0.447998 204.537 1.27079 202.799 3.00889L204.214 4.42311ZM209.662 2.448C211.953 2.448 214.267 3.04696 216.614 4.27766L217.543 2.50634C214.946 1.14504 212.316 0.447998 209.662 0.447998V2.448ZM216.188 2.93689L213.704 7.79689L215.485 8.70711L217.969 3.84711L216.188 2.93689ZM215.214 7.46712C213.719 6.28655 212.139 5.632 210.49 5.632V7.632C211.578 7.632 212.734 8.05745 213.975 9.03688L215.214 7.46712ZM210.49 5.632C209.435 5.632 208.481 5.93044 207.749 6.62786L209.128 8.07614C209.404 7.81355 209.818 7.632 210.49 7.632V5.632ZM207.731 6.64489C207.188 7.18808 206.826 7.86094 206.826 8.648H208.826C208.826 8.52306 208.873 8.33192 209.146 8.05911L207.731 6.64489ZM206.826 8.648C206.826 9.25187 206.98 9.83439 207.35 10.328L208.95 9.128C208.889 9.0456 208.826 8.90813 208.826 8.648H206.826ZM207.379 10.3637C207.92 11.0209 208.876 11.4481 209.955 11.767L210.522 9.84898C209.489 9.54386 209.053 9.25113 208.922 9.09229L207.379 10.3637ZM209.949 11.7653L211.857 12.3413L212.435 10.4267L210.527 9.85067L209.949 11.7653ZM211.851 12.3393C213.792 12.94 215.052 13.6643 215.768 14.439L217.237 13.081C216.177 11.9357 214.533 11.076 212.442 10.4287L211.851 12.3393ZM215.772 14.4429C216.603 15.3323 217.05 16.5023 217.05 18.044H219.05C219.05 16.0817 218.466 14.3957 217.233 13.0771L215.772 14.4429ZM217.05 18.044C217.05 20.3497 216.367 22.0936 215.075 23.3849L216.49 24.7991C218.222 23.0664 219.05 20.7783 219.05 18.044H217.05ZM215.075 23.3849C213.688 24.7723 211.615 25.54 208.69 25.54V27.54C211.958 27.54 214.613 26.6757 216.49 24.7991L215.075 23.3849ZM208.69 25.54C207.091 25.54 205.637 25.2925 204.319 24.8091L203.63 26.6869C205.192 27.2595 206.882 27.54 208.69 27.54V25.54ZM204.307 24.805C203.179 24.4067 202.047 23.8154 200.912 23.0208L199.765 24.6592C201.03 25.5446 202.322 26.2253 203.642 26.691L204.307 24.805Z" fill="white"/>
</svg>
